<svg width="32" height="32" viewBox="0 0 32 32" fill="none" xmlns="http://www.w3.org/2000/svg">
<path d="M26.64 6.89252C24.0925 4.84252 20.0625 4.49502 19.89 4.48252C19.6225 4.46002 19.3675 4.61002 19.2575 4.85752C19.2475 4.87252 19.16 5.07502 19.0625 5.39002C20.7475 5.67502 22.8175 6.24752 24.69 7.41002C24.99 7.59502 25.0825 7.99001 24.8975 8.29001C24.775 8.48751 24.5675 8.59501 24.3525 8.59501C24.2375 8.59501 24.12 8.56251 24.015 8.49751C20.795 6.50002 16.775 6.40002 16 6.40002C15.225 6.40002 11.2025 6.50002 7.98503 8.49751C7.68503 8.68501 7.29003 8.59251 7.10503 8.29251C6.91753 7.99001 7.01003 7.59752 7.31003 7.41002C9.18253 6.25002 11.2525 5.67502 12.9375 5.39252C12.84 5.07502 12.7525 4.87502 12.745 4.85752C12.6325 4.61002 12.38 4.45502 12.11 4.48252C11.9375 4.49502 7.90753 4.84252 5.32503 6.92002C3.97753 8.16751 1.28003 15.4575 1.28003 21.76C1.28003 21.8725 1.31003 21.98 1.36503 22.0775C3.22503 25.3475 8.30253 26.2025 9.46003 26.24C9.46503 26.24 9.47253 26.24 9.48003 26.24C9.68503 26.24 9.87753 26.1425 9.99753 25.9775L11.1675 24.3675C8.01003 23.5525 6.39753 22.1675 6.30503 22.085C6.04003 21.8525 6.01503 21.4475 6.25003 21.1825C6.48253 20.9175 6.88753 20.8925 7.15253 21.125C7.19003 21.16 10.16 23.68 16 23.68C21.85 23.68 24.82 21.15 24.85 21.125C25.115 20.895 25.5175 20.9175 25.7525 21.185C25.985 21.45 25.96 21.8525 25.695 22.085C25.6025 22.1675 23.99 23.5525 20.8325 24.3675L22.0025 25.9775C22.1225 26.1425 22.315 26.24 22.52 26.24C22.5275 26.24 22.535 26.24 22.54 26.24C23.6975 26.2025 28.775 25.3475 30.635 22.0775C30.69 21.98 30.72 21.8725 30.72 21.76C30.72 15.4575 28.0225 8.16752 26.64 6.89252ZM11.84 19.2C10.6025 19.2 9.60003 18.055 9.60003 16.64C9.60003 15.225 10.6025 14.08 11.84 14.08C13.0775 14.08 14.08 15.225 14.08 16.64C14.08 18.055 13.0775 19.2 11.84 19.2ZM20.16 19.2C18.9225 19.2 17.92 18.055 17.92 16.64C17.92 15.225 18.9225 14.08 20.16 14.08C21.3975 14.08 22.4 15.225 22.4 16.64C22.4 18.055 21.3975 19.2 20.16 19.2Z" fill="white"/>
</svg>
